<?xml version="1.0" encoding="utf-8"?>
<!-- Generator: Adobe Illustrator 22.1.0, SVG Export Plug-In . SVG Version: 6.00 Build 0)  -->
<svg version="1.1" id="图层_1" xmlns="http://www.w3.org/2000/svg" xmlns:xlink="http://www.w3.org/1999/xlink" x="0px" y="0px"
	 viewBox="0 0 480 240" style="enable-background:new 0 0 480 240;" xml:space="preserve">
<style type="text/css">
	.st0{fill:none;}
	.st1{fill:#C4C6CC;}
	.st2{fill:url(#Fill-1_1_);}
	.st3{fill:url(#矩形_4_);}
	.st4{fill:#979BA5;}
	.st5{fill:url(#SVGID_1_);}
	.st6{fill:#F8F9FA;}
	.st7{fill:url(#形状结合_1_);}
	.st8{fill:url(#形状结合_6_);}
	.st9{fill:#DCDEE0;}
</style>
<g id="页面-1">
	<g id="Exception_x2F_异常提示" transform="translate(-870.000000, -2381.000000)">
		<g id="无权限类" transform="translate(357.000000, 2287.000000)">
			<g id="编组-12" transform="translate(0.000000, 73.000000)">
				<g id="无权限类-插图" transform="translate(513.000000, 21.000000)">
					<g id="没有权限" transform="translate(128.000000, 42.000000)">
						<rect id="矩形_1_" class="st0" width="224" height="183"/>
						<circle id="椭圆形" class="st1" cx="132" cy="11" r="1"/>
						<circle id="椭圆形_1_" class="st1" cx="173" cy="94" r="2"/>
						<circle id="椭圆形_2_" class="st1" cx="59" cy="66" r="2"/>
						<linearGradient id="Fill-1_1_" gradientUnits="userSpaceOnUse" x1="116.3587" y1="129.4075" x2="119.3314" y2="157.6906">
							<stop  offset="0" style="stop-color:#FBFCFD"/>
							<stop  offset="0.9988" style="stop-color:#F2F4F7"/>
						</linearGradient>
						<path id="Fill-1" class="st2" d="M60.5,136.1c16.2-3.5,40.6-4.7,56.5-3.9c15.8,0.8,33.1,3.1,33.1,3.1s4.5-1.9,4.1-1.2
							c-0.3,0.8-2.4,1.9-1,2.3c1.4,0.4,15.5,1.9,21.4,3.1s8.6,2.3,8.6,2.3s3.8-6.6,12.3-5.8c0,0.6-3.1,1.4-4.2,3.1S188,142,188,142
							s1.8-1,4.9,0.5s6.1,2,6.1,2.2s-1.4,3.5-12.7,1.2c-4.6-1.2-6.9,5.1-29.3,6.6s-60.3,2.7-60.3,2.7s1.7,2.3,5.2,3.1
							c0,0-2.4,2.3-7.2,1.6c-4.8-0.8-10-4.7-10-4.7s-12.7-0.8-17.6-1.6s-10.3-2.7-14.1-3.1c-3.8-0.4-21-2.3-14.5-6.6
							C38.5,143.9,44.3,139.6,60.5,136.1z"/>

							<linearGradient id="矩形_4_" gradientUnits="userSpaceOnUse" x1="156.1667" y1="-2.5143" x2="156.1667" y2="-1.5143" gradientTransform="matrix(96 0 0 70 -14879 252)">
							<stop  offset="0" style="stop-color:#F2F3F5"/>
							<stop  offset="1" style="stop-color:#E5E8EB"/>
						</linearGradient>
						<path id="矩形_2_" class="st3" d="M70,76h86c2.8,0,5,2.2,5,5v60c0,2.8-2.2,5-5,5H70c-2.8,0-5-2.2-5-5V81
							C65,78.2,67.2,76,70,76z"/>
						<path id="形状结合" class="st1" d="M59.3,138v11.7H71v2.3H59.3l0,0H57v-14H59.3z"/>
						<path id="形状结合备份-4" class="st1" d="M166.7,138v11.7H155v2.3h11.7l0,0h2.3v-14H166.7z"/>
						<g>
							<path id="形状结合_5_" class="st4" d="M116.5,116.8l1.6,7.9c0.2,0.8-0.4,1.6-1.2,1.8c-0.1,0-0.2,0-0.3,0h-7.2
								c-0.8,0-1.5-0.7-1.5-1.5c0-0.1,0-0.2,0-0.3l1.6-7.9c-3-1.3-5-4.1-5-7.3c0-4.4,3.8-8,8.5-8s8.5,3.6,8.5,8
								C121.5,112.7,119.5,115.5,116.5,116.8z"/>

								<linearGradient id="SVGID_1_" gradientUnits="userSpaceOnUse" x1="136.0294" y1="-6.8011" x2="136.0294" y2="-6.2789" gradientTransform="matrix(17 0 0 25 -2199.5 277.5)">
								<stop  offset="0" style="stop-color:#E1E2E6"/>
								<stop  offset="1" style="stop-color:#EEF0F2"/>
							</linearGradient>
							<path class="st5" d="M117,127.5h-7.6c-1.4,0-2.5-1.1-2.5-2.5l0-0.5l1.4-7.1c-3-1.6-4.9-4.6-4.9-7.9c0-5,4.3-9,9.5-9
								s9.5,4,9.5,9c0,3.3-1.9,6.3-4.9,7.9l1.4,7.1c0.3,1.2-0.6,2.6-1.9,3L117,127.5z M108.9,124.8v0.2c0,0.2,0.3,0.5,0.5,0.5h7.3
								c0.2-0.1,0.4-0.4,0.4-0.6l-1.8-8.7l0.7-0.3c2.7-1.2,4.4-3.6,4.4-6.4c0-3.9-3.4-7-7.5-7s-7.5,3.1-7.5,7c0,2.8,1.7,5.2,4.4,6.4
								l0.7,0.3L108.9,124.8z"/>
						</g>
						<path id="矩形_3_" class="st6" d="M70,76h86c2.8,0,5,2.2,5,5l0,0c0,2.8-2.2,5-5,5H70c-2.8,0-5-2.2-5-5l0,0
							C65,78.2,67.2,76,70,76z"/>

							<linearGradient id="形状结合_1_" gradientUnits="userSpaceOnUse" x1="155.0263" y1="-2.6667" x2="155.0263" y2="-1.6727" gradientTransform="matrix(76 0 0 66 -11669 192)">
							<stop  offset="0" style="stop-color:#F3F4F5"/>
							<stop  offset="1" style="stop-color:#E6E8EB"/>
						</linearGradient>
						<path id="形状结合_2_" class="st7" d="M141.5,54.6c0-16-12.8-29-28.5-29s-28.5,13-28.5,29l0,0v25.8c0,0.9-2.1,1.6-4.8,1.6
							c-2.5,0-4.6-0.7-4.7-1.5v-0.1V54.6C75,33.3,92,16,113,16s38,17.3,38,38.6l0,0v25.8c0,0.9-2.1,1.6-4.8,1.6s-4.8-0.7-4.8-1.6
							l0,0V54.6H141.5z"/>

							<linearGradient id="形状结合_6_" gradientUnits="userSpaceOnUse" x1="153.7903" y1="-3.2385" x2="153.7903" y2="-2.2592" gradientTransform="matrix(62 0 0 54 -9422 201)">
							<stop  offset="0" style="stop-color:#E7E9EB"/>
							<stop  offset="1" style="stop-color:#E7E9EB"/>
						</linearGradient>
						<path id="形状结合_3_" class="st8" d="M82,54.5C82.3,38.2,96,25,113,25c17.1,0,31,13.4,31,30h-3.1c0-14.9-12.5-27-27.9-27
							S85.1,40.1,85.1,55v24H82V55V54.5z M144,55v24h-3.1V55H144z"/>
						<path id="形状结合_4_" class="st9" d="M80,78c2.7,0,4.9-0.8,5-1.9V76v4c0,1.1-2.2,2-5,2c-2.7,0-4.9-0.8-5-1.9V80v-4
							C75,77.1,77.2,78,80,78z"/>
						<path id="形状结合备份-3" class="st9" d="M146,78c2.7,0,4.9-0.8,5-1.9V76v4c0,1.1-2.2,2-5,2c-2.7,0-4.9-0.8-5-1.9V80v-4
							C141,77.1,143.2,78,146,78z"/>
					</g>
				</g>
			</g>
		</g>
	</g>
</g>
</svg>
