<?xml version="1.0" standalone="no"?>
  <!DOCTYPE svg PUBLIC "-//W3C//DTD SVG 1.1//EN" "http://www.w3.org/Graphics/SVG/1.1/DTD/svg11.dtd" >
  <svg>
  <metadata>
  Created by font-carrier
  </metadata>
  <defs>
  <font id="iconfont" horiz-adv-x="1024" vert-adv-y="1024" >
    <font-face
      
      font-family="iconfont"
      
      font-weight="400"
      
      font-stretch="normal"
      
      units-per-em="1024"
      
      ascent="812"
      
      descent="-212"
      
    />
      <missing-glyph />

      
      <glyph glyph-name="x" unicode="&#x78;" horiz-adv-x="100"
        d="M20 20 L50 20 L50 -20 Z" />
      

      
      <glyph glyph-name="uniE101" unicode="&#xE101;" d="M637.8327 205.1852L535.1126 385.6134 727.2863 726.6667 931.1478 725.7364 637.8327 205.1852 637.8327 205.1852ZM501.5712 489.6296L605.0011 679.2593 215.6357 679.2593C121.5219 679.2593 62.2906 574.3968 108.527 489.6296L501.5712 489.6296 501.5712 489.6296ZM412.8274 394.8148L208.9659 393.8883 502.2862-126.6667 605.0011 53.7616 412.8274 394.8148 412.8274 394.8148Z"  horiz-adv-x="1024" vert-adv-y="1024"  />

      
      <glyph glyph-name="uniE102" unicode="&#xE102;" d="M523.348 652C648.016 652 754.2016 570.0192 794.4156 455.2559 789.3544 455.5949 784.2629 455.7333 779.1402 455.7333 755.5945 455.7333 732.7081 452.809 710.8009 447.2918 677.0065 517.9929 606.232 566.6667 524.3963 566.6667 426.2969 566.6667 344.092 496.724 322.4156 402.7119 297.5256 406.1811 263.9362 410.0044 239.2969 404.592 262.7523 545.1214 381.0024 652 523.348 652ZM270.7008 408.1114C311.9773 408.1114 349.5449 400.772 377.6553 382.3495 417.4021 356.3009 456.643 320.3825 495.0172 285.5274L495.0172 285.5274 434.607 225.6415C385.6743 276.7496 328.8214 323.6417 270.7008 323.6417 201.2244 323.6417 144.9014 264.0258 144.9014 193.3333 144.9014 122.6409 201.2237 63.8038 270.7008 63.8038 284.6981 63.8038 307.6341 63.3983 334.7005 63.1434L332.6378 60.0053C320.1886 41.2918 294.9616 13.9123 256.9569-22.1333 137.3185-22.1333 61.0351 75.5126 61.0351 193.3333 61.0351 311.1541 154.9056 408.1114 270.7008 408.1114ZM775.9952 410.9333C891.7903 410.9333 985.6609 313.9881 985.6609 194.4 985.6609 74.8119 891.7903-22.1333 775.9952-22.1333L775.9952-22.1333 245.9605-22.1333C483.9675 215.9504 621.5501 347.965 658.7082 373.9104 692.183 397.2839 732.5457 410.9333 775.9952 410.9333ZM773.8985 325.6C746.4938 325.6 721.1022 316.83 700.2868 301.8978 678.3962 286.1943 595.0208 206.5422 450.1607 62.9414L773.8985 62.9414 773.8985 62.9414C844.5336 62.9414 901.7946 123.596 901.7946 195.4667 901.7946 267.3373 844.5336 325.6 773.8985 325.6Z"  horiz-adv-x="1024" vert-adv-y="1024"  />

      
      <glyph glyph-name="uniE104" unicode="&#xE104;" d="M731.1662 63.021L731.1662-55.3566C731.1662-106.8252 691.0191-148 640.8352-148L640.8352-148 371.5151-148C321.3312-148 281.1841-106.8252 281.1841-55.3566L281.1841-55.3566 281.1841 63.021 731.1662 63.021ZM403.2982 16.6993C388.243 16.6993 374.8607 4.69 374.8607-12.4662 374.8607-27.9068 386.5702-41.6317 403.2982-41.6317 418.3534-41.6317 431.7357-27.9068 431.7357-12.4662 431.7357 2.9744 420.0262 16.6993 403.2982 16.6993ZM430.8979 746.0081C562.5864 730.5456 674.5216 634.3346 715.6743 505.4805L743.6581 505.4805C849.0089 505.4805 934.6065 445.3486 962.5903 350.8557 992.2202 252.9266 957.652 146.4072 876.9927 86.2753 872.0544 82.8392 865.47 81.1212 858.8856 81.1212 849.0089 81.1212 839.1323 86.2753 832.5479 94.8656 822.6712 110.3281 825.9634 130.9447 840.7784 141.2531 898.3921 184.2044 923.0837 259.7988 901.6843 330.239 881.9311 395.5251 821.0251 436.7584 743.6581 436.7584L694.2749 436.7584C679.46 436.7584 666.2911 447.0667 662.9989 462.5292 635.0151 579.3568 539.5409 665.2595 425.9596 679.004 312.3782 692.7484 200.443 630.8984 147.7676 524.3791 95.0922 417.8598 109.9071 287.2877 185.628 197.9489 197.1508 184.2044 195.5047 161.8697 182.3358 149.8433 169.167 137.817 147.7676 139.535 136.2448 153.2794 42.4168 263.2349 24.3096 424.732 88.5077 555.3041 154.352 685.8762 290.9788 761.4705 430.8979 746.0081ZM642.508 342.6667C692.6919 342.6667 732.839 301.4918 732.839 250.0233L732.839 250.0233 732.839 131.6457 281.1841 131.6457 281.1841 250.0233C281.1841 301.4918 321.3312 342.6667 371.5151 342.6667L371.5151 342.6667ZM403.2982 236.2984C386.5702 236.2984 373.1879 222.5734 374.8607 207.1329 374.8607 191.6923 386.5702 177.9674 403.2982 177.9674 418.3534 177.9674 431.7357 189.9767 431.7357 207.1329 431.7357 222.5734 420.0262 236.2984 403.2982 236.2984Z"  horiz-adv-x="1024" vert-adv-y="1024"  />

      
      <glyph glyph-name="uniE106" unicode="&#xE106;" d="M510.575 726.6667C518.4392 726.6667 527.2864 725.6572 535.1506 721.6192L535.1506 721.6192 834.973 574.2322C849.7183 566.1562 861.5146 553.0327 866.4297 536.8807L866.4297 536.8807 941.1396 206.7742C943.1056 189.6127 939.1735 172.4512 929.3433 158.3182L929.3433 158.3182 721.9252-105.1612C711.1119-120.3037 694.4005-128.3797 676.7061-126.3607L676.7061-126.3607 346.41-126.3607C329.6985-125.3512 312.9871-117.2752 301.1908-105.1612L301.1908-105.1612 93.7727 158.3182C83.9425 172.4512 80.0104 189.6127 82.9595 206.7742L82.9595 206.7742 156.6863 538.8997C160.6184 556.0612 171.4317 569.1847 186.177 576.2512L186.177 576.2512 485.9994 724.6477C493.8636 726.6667 502.7108 726.6667 510.575 726.6667ZM495.8296 623.3179C492.4632 619.9118 490.4995 615.796 489.9384 611.5619L489.7701 609.012 489.7701 603.9028C489.7701 599.8154 490.78 595.7279 491.7899 591.6405 492.7999 589.5968 492.7999 587.5531 492.7999 585.5094L492.7999 584.4876C494.8197 573.2472 494.8197 562.0069 494.8197 549.7447 493.8098 546.6791 492.7999 543.6136 489.7701 541.5698L489.7701 539.5261 488.7602 531.3513C477.6511 530.3295 466.542 528.2858 454.4229 526.2421 406.9567 516.0236 363.5302 490.4773 330.2029 454.7125L324.1434 458.7999 323.1334 458.7999C322.1235 458.7999 321.1136 457.7781 319.0938 457.7781 317.0739 457.7781 315.0541 458.7999 313.0342 459.8218 305.7628 465.5441 298.4914 471.9205 292.2541 478.4276L287.7863 483.3243C286.7763 485.368 284.7565 486.3899 283.7466 487.4118 280.7168 490.4773 278.697 493.5429 275.6672 496.6084 274.6573 497.6303 273.6474 497.6303 272.6375 498.6521L271.6276 499.674C267.5879 502.7395 262.5383 504.7832 257.4887 504.7832 251.4292 504.7832 246.3796 502.7395 243.3498 497.6303 237.7953 489.2 239.0296 478.1938 245.4971 470.9084L247.3895 469.0184C248.3994 469.0184 248.3994 467.9966 248.3994 467.9966 248.3994 467.9966 250.4192 465.9529 251.4292 465.9529 254.4589 463.9092 258.4986 461.8655 262.5383 459.8218L268.5978 456.7562C278.697 450.6251 288.7962 444.494 296.8755 436.3192 298.5587 434.6161 300.2419 431.4938 300.1718 428.7263L300.0497 428 305.9648 422.0133C304.9549 419.9696 303.945 418.9477 302.935 416.904 271.6276 366.8333 258.4986 307.566 267.5879 249.3205L259.5085 247.2768C259.5085 246.2549 258.4986 246.2549 258.4986 246.2549 257.4887 243.1894 254.4589 241.1457 251.4292 239.102 242.5419 236.6495 233.6546 234.8511 224.2502 233.7066L217.0919 232.9709C215.0721 232.9709 213.0522 232.9709 211.0324 231.949 206.9927 231.949 202.953 230.9272 198.9134 230.9272 197.9034 230.9272 196.8935 229.9053 194.8737 229.9053 194.1163 229.9053 193.9269 229.9053 193.4535 229.4742L192.8539 228.8835C182.5382 226.9857 175.7058 218.0393 176.3996 207.7713L176.6951 205.3809 176.6951 205.3809C178.715 196.1842 187.8043 190.0531 196.8935 191.075 198.4084 191.075 199.3552 191.075 200.586 191.5061L201.9431 192.0968C202.953 192.0968 202.953 192.0968 202.953 193.1187 202.953 194.1405 205.9828 193.1187 206.9927 193.1187 211.0324 194.1405 215.0721 196.1842 218.1018 197.2061 220.1217 198.2279 222.1415 199.2498 224.1613 199.2498L225.1713 199.2498C236.2804 203.3372 246.3796 206.4027 258.4986 208.4464L259.5085 208.4464C262.5383 208.4464 265.568 207.4246 267.5879 205.3809 268.3453 205.3809 268.5347 204.8061 268.582 204.5187L268.5978 204.359 277.6871 205.3809C292.8359 158.3758 321.1136 116.4799 360.5004 85.8243 369.5897 78.6714 377.6691 72.5403 387.7683 67.431L382.7187 60.2781C382.7187 59.2562 383.7286 59.2562 383.7286 59.2562 385.7484 56.1907 385.7484 52.1033 384.7385 49.0377 380.6988 38.8192 374.6393 28.6007 368.5798 19.404L368.5798 18.3822C367.5699 16.3385 366.56 15.3166 364.5401 13.2729 362.5203 11.2292 360.5004 7.1418 357.4707 3.0544 356.4608 2.0326 356.4608 1.0107 355.4508-0.0111 355.4508-0.0111 355.4508-0.5859 355.0248-0.8733L354.4409-1.033C349.3913-11.2515 353.431-23.5137 362.5203-28.623 364.5401-29.6448 367.5699-30.6667 369.5897-30.6667 376.7714-30.6667 383.1551-26.6297 387.3222-20.7089L388.7782-18.4045C388.7782-18.4045 388.7782-17.3826 389.7881-17.3826 389.7881-16.3608 390.798-15.3389 391.8079-14.3171 392.8179-10.2296 394.8377-7.1641 395.8476-3.0767L397.8675 3.0544C400.8972 14.2948 405.9468 24.5133 410.9964 34.7318 413.0162 37.7973 416.046 39.841 419.0758 40.8629 419.8332 40.8629 420.0226 40.8629 420.0699 41.294L420.0857 41.8847 424.1254 50.0596C452.4031 38.8192 481.6908 33.7099 511.9883 33.7099 530.1669 33.7099 548.3454 35.7536 566.524 40.8629 577.6331 42.9066 588.7422 46.994 598.8414 50.0596L602.8811 42.9066C603.891 42.9066 603.891 42.9066 603.891 41.8847 606.9207 40.8629 609.9505 38.8192 611.9703 35.7536 617.0199 25.5351 622.0695 15.3166 625.0993 4.0763L625.0993 3.0544 627.1191-3.0767C628.129-7.1641 629.139-11.2515 631.1588-14.3171 632.1687-15.3389 632.1687-16.3608 633.1786-17.3826 633.1786-17.3826 633.1786-17.9574 633.6047-18.2448L634.1886-18.4045C638.2282-25.5574 645.2977-30.6667 653.377-30.6667 656.4068-30.6667 658.4266-29.6448 661.4564-28.623 665.4961-26.5793 669.5357-22.4919 670.5456-17.3826 671.3536-13.2952 671.5152-9.2078 670.5133-5.1204L669.5357-2.0548C669.5357-1.033 668.5258-1.033 668.5258-1.033 668.5258-0.0111 667.5159 1.0107 666.506 2.0326 664.4861 6.12 662.4663 9.1855 659.4365 12.2511 658.4266 14.2948 657.4167 15.3166 655.3969 17.3603L655.3969 19.404C648.3274 28.6007 643.2778 38.8192 639.2382 49.0377 638.2282 52.1033 638.2282 56.1907 640.2481 59.2562 640.2481 60.0226 640.8161 60.2142 641.1002 60.2621L641.258 60.2781 638.2282 68.4529C689.7341 100.1303 729.121 149.1791 747.2995 207.4246L755.3789 206.4027C756.3888 206.4027 756.3888 207.4246 756.3888 207.4246 758.4086 209.4683 761.4384 210.4902 764.4681 210.4902L765.4781 210.4902C776.5872 208.4464 787.6963 205.3809 797.7955 201.2935L798.8054 201.2935C800.8252 200.2716 802.8451 199.2498 804.8649 199.2498 808.9046 197.2061 811.9343 195.1624 815.974 194.1405 816.9839 194.1405 817.9939 193.1187 820.0137 193.1187 820.7711 193.1187 820.9605 193.1187 821.4339 192.6876L822.0335 192.0968C824.0534 191.075 825.0633 191.075 827.0831 191.075 836.1724 191.075 844.2518 197.2061 847.2815 205.3809 846.3558 215.6846 839.4897 223.4123 831.3507 226.2029L829.103 226.8398C828.093 226.8398 827.0831 226.8398 827.0831 227.8616 827.0831 228.8835 825.0633 228.8835 823.0435 228.8835 819.0038 229.9053 814.9641 229.9053 810.9244 229.9053 808.9046 229.9053 806.8847 229.9053 804.8649 230.9272L803.855 230.9272C792.7459 231.949 780.6268 233.9927 769.5177 237.0583 766.9929 237.9098 764.4681 240.1806 763.1122 242.6879L762.4483 244.2112 754.3689 246.2549C758.4086 275.8886 756.3888 306.5441 750.3293 336.1778 743.2598 365.8115 731.1408 394.4233 714.9821 419.9696L721.0416 426.1007 721.0416 427.1225C721.0416 430.1881 722.0515 434.2755 724.0714 436.3192 731.3428 442.859 738.6142 448.0909 746.4027 453.0612L752.3491 456.7562 758.4086 459.8218 758.4086 459.8218C762.4483 461.8655 765.4781 463.9092 769.5177 465.9529 770.5277 466.9747 771.5376 466.9747 772.5475 467.9966 773.3049 468.763 772.9262 468.9546 772.6895 469.4336L772.5475 470.0403C781.6368 477.1932 783.6566 489.4555 776.5872 498.6521 773.5574 502.7395 767.4979 505.8051 762.4483 505.8051 758.4086 505.8051 754.3689 504.4971 750.8463 502.4043L748.3094 500.6958 747.2995 499.674C746.2896 498.6521 745.2797 497.6303 744.2698 497.6303 741.24 494.5647 738.2102 491.4992 736.1904 488.4336 735.433 486.9008 734.1074 485.9428 733.066 485.1286L732.1507 484.3462C725.0813 476.1714 715.992 467.9966 706.9027 461.8655 704.8829 460.8436 702.8631 459.8218 700.8432 459.8218 699.8333 459.8218 697.8135 459.8218 696.8035 460.8436L695.7936 460.8436 687.7143 455.7344C679.6349 463.9092 670.5456 472.084 662.4663 480.2588 625.0993 509.8925 578.643 528.2858 531.1768 533.395L530.1669 541.5698 530.1669 540.548C527.1371 542.5917 526.1272 545.6573 525.1173 548.7228 525.1173 559.9632 525.1173 571.2035 527.1371 583.4657L527.1371 584.4876C527.1371 586.5313 528.147 588.575 528.147 590.6187 529.157 594.7061 529.157 598.7935 530.1669 602.8809L530.1669 609.012C531.1768 619.2305 523.0974 629.449 512.9982 630.4709 506.9387 631.4927 500.8792 628.4272 495.8296 623.3179ZM516.028 185.9657C518.3003 184.433 520.0046 182.9002 521.9928 180.9363L524.1074 178.8128 572.5835 89.9117C566.524 88.8899 560.4645 87.868 553.395 85.8243 539.2561 82.7588 525.1173 80.7151 509.9685 80.7151 488.7602 80.7151 466.542 84.8025 446.3436 90.9336L495.8296 181.8783C500.8792 188.0094 508.9586 190.0531 516.028 185.9657ZM424.1254 229.9053C432.2047 229.9053 440.2841 224.7961 441.294 216.6213 442.1019 214.1688 442.2635 211.0624 441.2617 208.3483L440.2841 206.4027 401.9071 112.3925C366.56 135.895 338.2822 171.6598 324.1434 212.5339L424.1254 229.9053ZM594.8017 230.9272L695.7936 213.5557C690.744 199.2498 684.6845 185.9657 676.6052 174.7254 661.4564 150.2009 640.2481 128.7421 616.01 113.4143L576.6232 209.4683C574.6033 217.6431 578.643 225.8179 585.7124 228.8835 588.7422 229.9053 591.7719 230.9272 594.8017 230.9272ZM525.1173 312.6752L544.3057 288.1508 537.2363 258.5171 509.9685 245.2331 482.7007 258.5171 475.6312 288.1508 494.8197 312.6752 525.1173 312.6752ZM677.6151 385.2267C688.7242 366.8333 696.8035 346.3963 701.8531 324.9375 706.9027 303.4786 707.9127 282.0197 705.8928 260.5608L609.9505 288.1508C600.8612 290.1945 595.8116 299.3912 597.8315 308.5878 598.8414 311.6534 599.8513 313.6971 601.8711 315.7408L677.6151 385.2267ZM341.312 385.2267L416.046 317.7845C423.1154 311.6534 424.1254 301.4349 418.0658 294.2819 416.046 291.2164 414.0262 290.1945 409.9865 289.1727L312.0243 260.5608C308.9946 303.4786 319.0938 347.4182 341.312 385.2267ZM484.7205 479.2369L479.6709 377.0519C479.6709 367.8552 471.5916 360.7022 462.5023 360.7022 459.4725 360.7022 457.4527 361.7241 454.4229 362.7459L370.5996 423.0351C396.8575 448.5814 429.175 466.9747 464.5221 475.1495L484.7205 479.2369ZM533.1966 478.2151C577.6331 473.1058 617.0199 453.6907 647.3175 423.0351L564.5041 363.7678C557.4347 359.6804 547.3355 360.7022 542.2859 367.8552 540.2661 369.8989 539.2561 371.9426 539.2561 375.0081L533.1966 478.2151Z"  horiz-adv-x="1024" vert-adv-y="1024"  />

      
      <glyph glyph-name="uniE103" unicode="&#xE103;" d="M804.8771 66.272L801.4313 57.4525 866.4025 0.864 503.4584-198.6492 139.8958 1.1627 206.7045 57.4525 203.3625 65.5467 503.4584-99.4066 804.8771 66.272ZM438.9198 536.4111L438.9198 362.9842 580.7862 536.4111 760.5831 536.4111 601.0954 363.2973 767.7511 77.4874 601.0954 77.4874 508.8076 266.2534 438.9198 189.5574 438.9198 77.4874 303.6241 77.4874 303.6241 536.4111 438.9198 536.4111ZM446.0718 782.88L446.0718 683.5733 132.9566 511.5349 132.9411 186.3147 64.8753 137.592 42.6371 83.424 42.6297 561.1569 446.0718 782.88ZM560.7598 782.9013L964.2336 561.1569 964.2158 104.9493 942.2461 137.592 873.8905 185.504 873.9067 511.484 560.7598 683.5733 560.7598 782.9013Z"  horiz-adv-x="1024" vert-adv-y="1024"  />

      
      <glyph glyph-name="uniE117" unicode="&#xE117;" d="M512 812C229.2571 812 0 582.7429 0 300 0 17.2571 229.2571-212 512-212 794.7429-212 1024 17.2571 1024 300 1024 582.7429 794.7429 812 512 812L512 812ZM375.8065 477.1207L379.0879 474.2879 504.6857 348.6766 630.2835 474.2879C641.7091 485.7136 660.2337 485.7136 671.6594 474.2879 682.0463 463.901 682.9906 447.6471 674.4922 436.1935L671.6594 432.9121 546.048 307.3143 671.6594 181.7165C683.085 170.2909 683.085 151.7663 671.6594 140.3406 661.2724 129.9537 645.0186 129.0094 633.5649 137.5078L630.2835 140.3406 504.6857 265.952 379.0879 140.3406C367.6623 128.915 349.1377 128.915 337.7121 140.3406 327.3251 150.7276 326.3809 166.9814 334.8793 178.4351L337.7121 181.7165 463.3234 307.3143 337.7121 432.9121C326.2864 444.3377 326.2864 462.8623 337.7121 474.2879 348.099 484.6749 364.3529 485.6191 375.8065 477.1207Z"  horiz-adv-x="1024" vert-adv-y="1024"  />

      
      <glyph glyph-name="uniE116" unicode="&#xE116;" d="M512 812C229.2571 812 0 582.7429 0 300 0 17.2571 229.2571-212 512-212 794.7429-212 1024 17.2571 1024 300 1024 582.7429 794.7429 812 512 812L512 812ZM674.1692 430.4022C685.5948 441.8278 704.1194 441.8278 715.5451 430.4022 725.932 420.0153 726.8763 403.7614 718.3779 392.3078L715.5451 389.0264 487.0552 160.5365C476.6683 150.1496 460.4144 149.2053 448.9608 157.7037L445.6794 160.5365 308.4549 297.7609C297.0293 309.1865 297.0293 327.7111 308.4549 339.1368 318.8419 349.5237 335.0957 350.468 346.5494 341.9696L349.8308 339.1368 466.3589 222.6149 674.1692 430.4022Z"  horiz-adv-x="1024" vert-adv-y="1024"  />

      
      <glyph glyph-name="uniE115" unicode="&#xE115;" d="M512 812C229.2571 812 0 582.7429 0 300 0 17.2571 229.2571-212 512-212 794.7429-212 1024 17.2571 1024 300 1024 582.7429 794.7429 812 512 812L512 812ZM516.5714 162.8571C539.294 162.8571 557.7143 144.4369 557.7143 121.7143 557.7143 98.9917 539.294 80.5714 516.5714 80.5714 493.8489 80.5714 475.4286 98.9917 475.4286 121.7143 475.4286 144.4369 493.8489 162.8571 516.5714 162.8571ZM516.8376 519.4286C539.4132 519.4286 557.7143 503.2833 557.7143 483.3671 557.7143 481.4521 557.5451 479.572 557.2191 477.7377L545.7541 243.2244C545.7541 229.1356 532.8077 217.7143 516.8376 217.7143 500.8674 217.7143 487.9211 229.1356 487.9211 243.2244L487.9211 243.2244 475.4286 485.5709 476.038 485.6002C477.3452 504.4763 495.1121 519.4286 516.8376 519.4286Z"  horiz-adv-x="1024" vert-adv-y="1024"  />

      
      <glyph glyph-name="uniE10C" unicode="&#xE10C;" d="M305.3714 610.8571C334.6286 581.6 334.6286 535.8857 305.3714 506.6286 276.1143 477.3714 230.4 477.3714 201.1429 506.6286L149.9429 557.8286C120.6857 587.0857 120.6857 632.8 149.9429 662.0571 179.2 691.3143 224.9143 691.3143 254.1714 662.0571L305.3714 610.8571ZM146.2857 373.1429C186.5143 373.1429 219.4286 340.2286 219.4286 300 219.4286 259.7714 186.5143 226.8571 146.2857 226.8571L73.1429 226.8571C32.9143 226.8571 0 259.7714 0 300 0 340.2286 32.9143 373.1429 73.1429 373.1429L146.2857 373.1429ZM201.1429 93.3714C230.4 122.6286 276.1143 122.6286 305.3714 93.3714 334.6286 64.1143 334.6286 18.4 305.3714-10.8571L254.1714-62.0571C224.9143-91.3143 179.2-91.3143 149.9429-62.0571 120.6857-32.8 120.6857 12.9143 149.9429 42.1714L201.1429 93.3714ZM438.8571-65.7143C438.8571-25.4857 471.7714 7.4286 512 7.4286 552.2286 7.4286 585.1429-25.4857 585.1429-65.7143L585.1429-138.8571C585.1429-179.0857 552.2286-212 512-212 471.7714-212 438.8571-179.0857 438.8571-138.8571L438.8571-65.7143ZM874.0571 42.1714C903.3143 12.9143 903.3143-32.8 874.0571-62.0571 844.8-91.3143 799.0857-91.3143 769.8286-62.0571L718.6286-10.8571C689.3714 18.4 689.3714 64.1143 718.6286 93.3714 747.8857 122.6286 793.6 122.6286 822.8571 93.3714L874.0571 42.1714ZM950.8571 373.1429C991.0857 373.1429 1024 340.2286 1024 300 1024 259.7714 991.0857 226.8571 950.8571 226.8571L877.7143 226.8571C837.4857 226.8571 804.5714 259.7714 804.5714 300 804.5714 340.2286 837.4857 373.1429 877.7143 373.1429L950.8571 373.1429ZM769.8286 662.0571C799.0857 691.3143 844.8 691.3143 874.0571 662.0571 903.3143 632.8 903.3143 587.0857 874.0571 557.8286L874.0571 557.8286 822.8571 506.6286C793.6 477.3714 747.8857 477.3714 718.6286 506.6286 689.3714 535.8857 689.3714 581.6 718.6286 610.8571L769.8286 662.0571ZM438.8571 738.8571C438.8571 779.0857 471.7714 812 512 812 552.2286 812 585.1429 779.0857 585.1429 738.8571L585.1429 665.7143C585.1429 625.4857 552.2286 592.5714 512 592.5714 471.7714 592.5714 438.8571 625.4857 438.8571 665.7143L438.8571 738.8571Z"  horiz-adv-x="1024" vert-adv-y="1024"  />

      
      <glyph glyph-name="uniE114" unicode="&#xE114;" d="M1024 300A512 512 0 0 0 512-212 512 512 0 0 0 0 300 512 512 0 0 0 1024 300ZM787.6923 300A275.6923 275.6923 0 0 0 512 24.3077 275.6923 275.6923 0 0 0 236.3077 300 275.6923 275.6923 0 0 0 787.6923 300Z"  horiz-adv-x="1024" vert-adv-y="1024"  />

      
      <glyph glyph-name="uniE113" unicode="&#xE113;" d="M1024 300A512 512 0 0 0 512-212 512 512 0 0 0 0 300 512 512 0 0 0 1024 300ZM787.6923 300A275.6923 275.6923 0 0 0 512 24.3077 275.6923 275.6923 0 0 0 236.3077 300 275.6923 275.6923 0 0 0 787.6923 300Z"  horiz-adv-x="1024" vert-adv-y="1024"  />

      
      <glyph glyph-name="uniE112" unicode="&#xE112;" d="M768 300C768 158.6 653.4 44 512 44S256 158.6 256 300 370.6 556 512 556 768 441.4 768 300ZM512 492C620.8 492 704 408.8 704 300S620.8 108 512 108 320 191.2 320 300 403.2 492 512 492M512 556C371.2 556 256 440.8 256 300S371.2 44 512 44 768 159.2 768 300 652.8 556 512 556L512 556Z"  horiz-adv-x="1024" vert-adv-y="1024"  />

      
      <glyph glyph-name="uniE111" unicode="&#xE111;" d="M768 300A256 256 0 0 0 512 44 256 256 0 0 0 256 300 256 256 0 0 0 768 300ZM512 492C620.8 492 704 408.8 704 300S620.8 108 512 108 320 191.2 320 300 403.2 492 512 492M512 556C371.2 556 256 440.8 256 300S371.2 44 512 44 768 159.2 768 300 652.8 556 512 556L512 556Z"  horiz-adv-x="1024" vert-adv-y="1024"  />

      
      <glyph glyph-name="uniE110" unicode="&#xE110;" d="M768 300A256 256 0 0 0 512 44 256 256 0 0 0 256 300 256 256 0 0 0 768 300ZM512 492C620.8 492 704 408.8 704 300S620.8 108 512 108 320 191.2 320 300 403.2 492 512 492M512 556C371.2 556 256 440.8 256 300S371.2 44 512 44 768 159.2 768 300 652.8 556 512 556L512 556Z"  horiz-adv-x="1024" vert-adv-y="1024"  />

      
      <glyph glyph-name="uniE10F" unicode="&#xE10F;" d="M704 300A192 192 0 0 0 512 108 192 192 0 0 0 320 300 192 192 0 0 0 704 300ZM512 44C370.8 44 256 158.8 256 300 256 441.2 370.8 556 512 556 653.2 556 768 441.2 768 300 768 158.8 653.2 44 512 44ZM512 492C406.1 492 320 405.9 320 300S406.1 108 512 108 704 194.1 704 300 617.9 492 512 492Z"  horiz-adv-x="1024" vert-adv-y="1024"  />

      
      <glyph glyph-name="uniE10D" unicode="&#xE10D;" d="M1024 300C1024 17.2 794.8-212 512-212S0 17.2 0 300 229.2 812 512 812 1024 582.8 1024 300ZM787.7 300C787.7 147.7 664.3 24.3 512 24.3S236.3 147.7 236.3 300C236.3 452.3 359.8 575.7 512.1 575.6 664.3 575.6 787.7 452.2 787.7 300Z"  horiz-adv-x="1024" vert-adv-y="1024"  />

      
      <glyph glyph-name="uniE107" unicode="&#xE107;" d="M0 812L865.9897 812 865.9897-211.1116 863.3756-211.1116C676.4803-211.1116 504.4605-109.1887 414.6919 54.7365L0 812 0 812Z"  horiz-adv-x="866" vert-adv-y="1024"  />

      
      <glyph glyph-name="uniE11F" unicode="&#xE11F;" d="M1024 300C1024 17.2 794.8-212 512-212S0 17.2 0 300 229.2 812 512 812 1024 582.8 1024 300ZM787.7 300C787.7 147.7 664.3 24.3 512 24.3S236.3 147.7 236.3 300C236.3 452.3 359.8 575.7 512.1 575.6 664.3 575.6 787.7 452.2 787.7 300Z"  horiz-adv-x="1024" vert-adv-y="1024"  />

      
      <glyph glyph-name="uniE120" unicode="&#xE120;" d="M762.2704 555.8995L566.4605 555.8995C572.2196 532.9808 577.5948 511.972 582.2021 490.9631 583.2577 484.4769 588.6671 479.57 595.2561 479.1218L752.2879 444.7436C772.7629 441.9667 787.356 423.5653 785.3068 403.1079L785.3068 228.9255C787.3418 208.3378 772.5336 189.8797 751.904 187.2897L593.7203 152.5296C589.8809 152.5296 584.8897 149.0918 583.7378 146.036 577.2108 123.4992 571.8357 100.5805 565.6926 76.1338L761.5025 76.1338C797.5549 74.4932 832.6416 87.9975 858.1977 113.3503 883.7537 138.7032 897.4277 173.5717 895.8818 209.4445L895.8818 422.9708C897.3023 458.6402 883.6821 493.2785 858.3106 518.5204 832.9391 543.7622 798.1229 557.3128 762.2704 555.8995L762.2704 555.8995ZM457.4213 555.1356C451.6622 531.8349 446.287 508.9161 439.76 486.3794 438.9921 483.3235 432.8491 479.5037 429.0097 479.5037L271.9778 444.7436C251.511 442.1548 236.7597 423.9364 238.575 403.4899L238.575 228.1615C237.1719 208.128 251.6006 190.4346 271.5939 187.6717L429.7775 152.5296C434.1927 151.6205 437.9832 148.827 440.1439 144.8901 446.6709 122.7353 451.6622 99.8165 457.8052 76.1338L254.7005 76.1338C185.3437 76.5417 129.0433 132.0452 128 201.041L128 433.2843C130.5588 499.4978 183.9236 552.5899 250.4771 555.1356ZM598.4791 332C607.9581 332 607.9581 325.1506 607.9581 315.4472 608.3531 305.173 605.9833 300.0359 599.664 300.0359L457.874 300.0359C448 299.4651 448 305.7438 448 315.4472L448.0108 318.5705C448.0975 326.5881 448.8777 332 455.8992 332Z"  horiz-adv-x="1024" vert-adv-y="1024"  />

      
      <glyph glyph-name="uniE121" unicode="&#xE121;" d="M278.2602 299.9909C278.3014 325.3853 282.4752 350.6037 290.6179 374.6572L152.1859 478.1829C96.002 366.0706 96.002 234.0231 152.1859 121.9109L290.5417 225.6229C282.4721 249.5875 278.3496 274.7041 278.3355 299.9909M521.3755 537.6549C576.4223 537.7909 629.8576 519.083 672.7986 484.6412L792.4899 601.6445C696.1397 684.452 567.2368 718.7026 442.4908 694.6421 317.7449 670.5816 210.827 590.8469 152.1859 478.1452L290.6922 374.6205C324.6075 472.8679 417.4793 538.4791 521.4122 537.6172M521.3755 62.3269C417.422 61.4558 324.5233 127.0648 290.5802 225.3245L152.1482 121.8365C222.9184-16.6848 365.8269-103.3837 521.3746-102.1635 620.072-103.2527 715.6314-67.5127 789.3906-1.9235L657.9402 97.5684C616.5454 73.4123 569.2513 61.2365 521.3379 62.4004M914.0099 299.9909C913.647 324.6444 910.5034 349.1783 904.6386 373.1269L521.3379 373.1269 521.3379 217.7085 741.9779 217.7085C732.1893 167.582 701.682 123.9226 657.9779 97.4949L789.3906-1.9988C872.4745 76.0285 917.9006 186.0772 914.0466 299.9909"  horiz-adv-x="1024" vert-adv-y="1024"  />

      
      <glyph glyph-name="uniE122" unicode="&#xE122;" d="M422.1708 68.3254C353.993 9.4826 297.1366-19.9592 251.6018-20 206.0669-20.0406 171.3293 7.6014 147.3888 62.9261L422.1708 68.369 422.1708 68.3254ZM601.8219 68.3254L876.6039 62.9261C852.6398 7.6421 817.9021-19.9999 772.391-19.9999 726.8798-19.9999 670.0235 9.4564 601.8219 68.369L601.8219 68.3254ZM70.1111 299.2744C175.5652 244.0311 243.2484 207.588 273.1606 189.945 303.0728 172.302 353.99 140.6447 425.9121 94.973 311.5121 87.9949 236.6427 87.9019 201.3037 94.6939 160.8787 102.4483 129.4113 119.3702 102.4671 145.8608 66.6009 181.0654 55.8156 232.2032 70.1111 299.2744ZM953.8817 299.2744C968.189 232.2207 957.4037 181.077 921.5256 145.8434 894.5904 119.3528 863.123 102.4309 822.689 94.6765 787.356 87.8728 712.5014 87.9659 598.1251 94.9556 669.9702 140.6331 720.8755 172.2904 750.841 189.9276 780.8066 207.5647 848.4868 244.0137 953.8817 299.2744L953.8817 299.2744ZM199.4731 526.7867C254.6173 455.0518 292.3586 403.8965 312.697 373.3208 333.0354 342.7451 378.9494 260.3511 450.439 126.139 309.4327 188.3837 211.4166 250.1951 156.3909 311.5733 116.8545 355.6575 116.8545 427.9855 161.7229 489.7155 168.2397 498.6708 180.8201 511.0191 199.4642 526.7605L199.4731 526.7867ZM824.4752 526.7867C843.143 511.0278 855.7234 498.6795 862.2166 489.7417 907.1293 428.0117 907.1293 355.7185 867.6018 311.5733 812.5761 250.166 714.5275 188.3459 573.456 126.1128 644.9396 260.325 690.8536 342.7334 711.198 373.3382 731.5423 403.943 769.3014 455.0925 824.4752 526.7867ZM447.5153 652C475.0697 572.031 490.639 515.5956 494.2232 482.6938 497.8075 449.7921 494.8186 339.2531 485.2567 151.077 365.43 320.3948 305.5167 443.2704 305.5167 519.7039 305.5167 596.1374 352.8495 640.2361 447.5153 652ZM576.5574 652C671.1936 640.207 718.5116 596.1083 718.5116 519.7039 718.5116 443.2995 658.6131 320.4239 538.8161 151.077 529.2363 339.224 526.2475 449.7572 529.8495 482.6764 533.4515 515.5956 549.0208 572.031 576.5574 651.9826L576.5574 652Z"  horiz-adv-x="1024" vert-adv-y="1024"  />

      
      <glyph glyph-name="uniE123" unicode="&#xE123;" d="M573.9966 604.1549L935.0508-20 268.4853-20C268.4853-20 403.5728 5.5974 673.7478 56.7923 535.1186 221.6476 465.8041 304.0753 465.8041 304.0753 465.8041 304.0753 501.8682 404.1018 573.9966 604.1549ZM543.2521 652C543.2521 652 480.6004 518.4492 414.6512 377.8695L398.1296 342.6513 387.1406 319.2268C323.246 183.0266 264.0267 56.7923 264.0267 56.7923L67.5254 56.7923 287.6319 435.6655C458.0453 579.8885 543.2521 652 543.2521 652Z"  horiz-adv-x="1024" vert-adv-y="1024"  />

      
      <glyph glyph-name="uniE124" unicode="&#xE124;" d="M572.3119 452.0866C503.9063 449.1664 436.2071 436.8526 371.0647 415.4816 300.9207 388.0492 255.1948 319.0442 256.65 242.8179 252.5559 198.2641 267.9465 154.1325 298.751 122.0954 329.5555 90.0583 372.6709 73.3429 416.6937 76.3703 484.1789 72.3729 549.5642 100.9187 593.0831 153.3781 609.2684 126.2181 630.1469 102.2378 654.7179 82.5863 662.9138 78.0037 673.0382 78.962 680.2563 85.0036 701.7091 103.9964 740.5289 137.4929 761.9817 155.7954 770.8346 163.0472 769.1326 174.0979 761.9817 184.4582 736.4109 210.8415 721.891 246.2305 721.4598 283.2216L721.4598 447.252C721.4598 516.3176 726.2271 581.9301 674.4676 630.6207 628.3863 667.3167 570.9241 686.1698 512.3801 683.8011 410.2244 683.8011 297.1719 645.8156 274.0161 520.462 273.0332 515.3496 274.2035 510.0534 277.2436 505.8552 280.2837 501.6571 284.9166 498.9396 290.0209 498.3607L392.1767 486.9645C401.852 488.8149 409.2653 496.7509 410.5642 506.6485 419.5652 546.5925 456.0999 573.7922 496.3753 570.5339 519.738 571.6097 542.1787 561.1952 556.6478 542.5623 568.2911 518.7301 572.6769 491.9229 569.2467 465.5545L569.2467 452.0866 572.3119 452.0866ZM551.8806 230.0412C537.6975 201.6542 509.6612 183.0942 478.3285 181.3497 436.7843 181.3497 413.2886 212.0843 413.2886 258.3575 413.2886 348.8342 495.3538 366.0999 572.6517 366.0999L572.6517 343.3084C576.6362 304.3862 569.6706 265.1155 552.5612 230.0412L551.8806 230.0412ZM782.3289 32.1099C694.229-6.9889 599.8949-27.3281 504.5713-27.7769 376.7555-28.0179 251.0433 7.1615 139.5871 74.3607 130.693 79.872 123.5096 70.3192 131.3777 62.9715 231.6754-32.5411 361.2953-84.8795 495.3358-83.9888 601.5313-84.1939 705.4177-50.707 793.9589 12.2699 807.2996 22.5571 796.3533 38.7232 782.3289 32.1099L782.3289 32.1099ZM861.2528 66.3407C821.383 82.4761 776.4823 78.2253 740.1141 54.8723 733.7711 49.957 735.0397 43.4039 742.0165 44.7147 766.1171 47.6633 819.3927 54.2174 829.5406 41.7652 839.6884 29.313 818.7589-22.1299 809.8796-44.7387 807.0251-51.9477 812.7333-54.5693 819.3927-48.9982 859.0338-15.5777 869.8147 56.1831 861.2536 66.3407L861.2528 66.3407Z"  horiz-adv-x="1024" vert-adv-y="1024"  />

      

  </font>
</defs>
</svg>
