<?xml version="1.0" encoding="utf-8"?>
<!-- Generator: Adobe Illustrator 22.1.0, SVG Export Plug-In . SVG Version: 6.00 Build 0)  -->
<svg version="1.1" id="图层_1" xmlns="http://www.w3.org/2000/svg" xmlns:xlink="http://www.w3.org/1999/xlink" x="0px" y="0px"
	 viewBox="0 0 480 240" style="enable-background:new 0 0 480 240;" xml:space="preserve">
<style type="text/css">
	.st0{fill:url(#Fill-1_1_);}
	.st1{fill:#C4C6CC;}
	.st2{fill:url(#矩形-2_1_);}
	.st3{fill:url(#矩形_6_);}
	.st4{fill:#DCDEE0;}
	.st5{fill:#D1D3D6;}
	.st6{fill:url(#矩形-3_1_);}
	.st7{fill:#E5E7EC;}
	.st8{fill:url(#三角形_1_);}
	.st9{fill:#979BA5;}
</style>
<g id="页面-1">
	<g id="Exception_x2F_异常提示" transform="translate(-869.000000, -2918.000000)">
		<g id="异常失败类" transform="translate(357.000000, 2823.000000)">
			<g id="异常失败类-插图" transform="translate(512.000000, 95.000000)">
				<g id="编组-2" transform="translate(123.000000, 33.000000)">
					<linearGradient id="Fill-1_1_" gradientUnits="userSpaceOnUse" x1="126.5699" y1="134.9889" x2="130.1638" y2="169.1827">
						<stop  offset="0" style="stop-color:#FBFCFD"/>
						<stop  offset="1" style="stop-color:#F2F4F7"/>
					</linearGradient>
					<path id="Fill-1" class="st0" d="M60,143c19.3-4.2,48.4-5.7,67.3-4.7s39.4,3.8,39.4,3.8s5.3-2.4,4.9-1.4
						c-0.4,0.9-2.9,2.4-1.2,2.8c1.6,0.5,18.5,2.4,25.4,3.8c7,1.4,10.3,2.8,10.3,2.8s4.6-8,14.7-7.1c0,0.8-3.7,1.7-5,3.8
						c-1.2,2.1-4,3.3-4,3.3s2.2-1.2,5.9,0.6s7.3,2.4,7.3,2.7s-1.6,4.2-15.2,1.4c-5.5-1.4-8.2,6.1-34.9,8s-71.8,3.3-71.8,3.3
						s2.1,2.8,6.2,3.8c0,0-2.9,2.8-8.6,1.9c-5.7-0.9-11.9-5.7-11.9-5.7s-15.2-0.9-20.9-1.9s-12.3-3.3-16.8-3.8s-25-2.8-17.2-8
						C33.8,152.4,40.7,147.3,60,143z"/>
					<path id="形状结合" class="st1" d="M60.8,147v9.2H70v1.8H59v-11H60.8z"/>
					<path id="形状结合备份" class="st1" d="M66,31.8h-9.2V41H55v-9.2l0,0V30h11V31.8z"/>
					<path id="形状结合备份-2" class="st1" d="M157.2,41v-9.2H148V30h9.2l0,0h1.8v11H157.2z"/>

						<linearGradient id="矩形-2_1_" gradientUnits="userSpaceOnUse" x1="165.7727" y1="-1.5597" x2="165.7727" y2="-0.6238" gradientTransform="matrix(88 0 0 112 -14480 214)">
						<stop  offset="0" style="stop-color:#EBEDF0;stop-opacity:0.9917"/>
						<stop  offset="1" style="stop-color:#E1E3E6"/>
					</linearGradient>
					<path id="矩形-2" class="st2" d="M65,38h86c0.6,0,1,0.4,1,1v110c0,0.6-0.4,1-1,1H65c-0.6,0-1-0.4-1-1V39
						C64,38.4,64.4,38,65,38z"/>

						<linearGradient id="矩形_6_" gradientUnits="userSpaceOnUse" x1="164.8014" y1="-1.8144" x2="164.8014" y2="-0.8259" gradientTransform="matrix(73 0 0 97 -11923 221)">
						<stop  offset="0" style="stop-color:#FFFFFF"/>
						<stop  offset="1" style="stop-color:#F2F4F7"/>
					</linearGradient>
					<rect id="矩形_1_" x="71" y="45" class="st3" width="73" height="97"/>
					<rect id="矩形_2_" x="86" y="49" class="st4" width="43" height="2"/>
					<rect id="矩形_3_" x="71" y="140" class="st5" width="73" height="2"/>

						<linearGradient id="矩形-3_1_" gradientUnits="userSpaceOnUse" x1="160.8256" y1="-11.7333" x2="160.8256" y2="-10.7412" gradientTransform="matrix(43 0 0 15 -6808 210)">
						<stop  offset="0" style="stop-color:#EDEFF2"/>
						<stop  offset="1" style="stop-color:#E8EAED"/>
					</linearGradient>
					<rect id="矩形-3" x="86" y="34" class="st6" width="43" height="15"/>
					<path id="形状结合_1_" class="st5" d="M152,105v44c0,0.6-0.4,1-1,1h-24.6L152,105z"/>
					<path id="形状结合_2_" class="st7" d="M144,119.2V140h-12L144,119.2z"/>

						<linearGradient id="三角形_1_" gradientUnits="userSpaceOnUse" x1="163.9143" y1="-3.0812" x2="163.9143" y2="-2.1453" gradientTransform="matrix(63.1799 0 0 56.9033 -10198.1719 277.0945)">
						<stop  offset="0" style="stop-color:#E6E8EB;stop-opacity:0.9917"/>
						<stop  offset="1" style="stop-color:#D4D6D9"/>
					</linearGradient>
					<path id="三角形" class="st8" d="M159.7,102.1l1.5,2.6l0,0l28.1,50.3c0.5,1,0.2,2.2-0.8,2.7c-0.3,0.2-0.6,0.3-1,0.3h-59.2
						c-1.1,0-2-0.9-2-2c0-0.3,0.1-0.7,0.3-1l29.6-52.9c0.5-1,1.8-1.3,2.7-0.8C159.3,101.5,159.6,101.8,159.7,102.1z"/>
					<path id="_x21_" class="st9" d="M160.7,124l-0.6,16.4h-4.2l-0.6-16.4C155.3,124,160.7,124,160.7,124z M155,145.8
						c0-0.9,0.3-1.6,0.9-2.2s1.3-0.8,2.1-0.8c0.9,0,1.6,0.3,2.1,0.8c0.6,0.6,0.8,1.3,0.8,2.1s-0.3,1.6-0.8,2.1
						c-0.6,0.6-1.2,0.9-2,0.9c-1,0-1.7-0.3-2.3-0.9C155.3,147.3,155,146.6,155,145.8z"/>
					<g id="编组-3" transform="translate(101.000000, 74.000000)">
						<rect id="矩形_4_" class="st1" width="3.8" height="1"/>
						<rect id="矩形备份" x="7.6" class="st1" width="3.8" height="1"/>
						<rect id="矩形备份-2" x="15.1" class="st1" width="3.8" height="1"/>
						<rect id="矩形备份-3" x="22.7" class="st1" width="3.8" height="1"/>
						<rect id="矩形备份-4" x="30.2" class="st1" width="3.8" height="1"/>
					</g>
					<g id="编组-3_1_" transform="translate(124.000000, 91.000000)">
						<rect id="矩形_5_" x="7.8" class="st1" width="3.9" height="1"/>
						<rect id="矩形备份-5" class="st1" width="3.9" height="1"/>
						<rect id="矩形备份_1_" x="15.6" class="st1" width="3.9" height="1"/>
						<rect id="矩形备份-2_1_" x="23.5" class="st1" width="3.9" height="1"/>
						<rect id="矩形备份-3_1_" x="31.3" class="st1" width="3.9" height="1"/>
						<rect id="矩形备份-4_1_" x="39.1" class="st1" width="3.9" height="1"/>
					</g>
				</g>
			</g>
		</g>
	</g>
</g>
</svg>
