<?xml version="1.0" encoding="utf-8"?>
<!-- Generator: Adobe Illustrator 22.1.0, SVG Export Plug-In . SVG Version: 6.00 Build 0)  -->
<svg version="1.1" id="BCS" xmlns="http://www.w3.org/2000/svg" xmlns:xlink="http://www.w3.org/1999/xlink" x="0px" y="0px"
	 viewBox="0 0 32 32" style="enable-background:new 0 0 32 32;" xml:space="preserve">
<style type="text/css">
	.st0{fill:#D8D8D8;}
	.st1{fill:#494949;}
</style>
<path id="_x31_" class="st0" d="M29.1,7.1l-12-6.9c-0.4-0.2-1-0.2-1.4,0l-12,6.9C3.8,7.3,3.9,7.5,4,7.8C4,8,4,8.2,4,8.5l11.6,6.7
	c0.4,0.2,1,0.2,1.4,0l12-6.9c0.3-0.2,0.5-0.6,0.3-0.9C29.3,7.3,29.2,7.2,29.1,7.1z"/>
<path id="_x32_" class="st0" d="M17.9,16.3l12-6.9c0.4-0.2,0.8,0,0.9,0.3c0,0.1,0.1,0.2,0.1,0.3v13.8c0,0.5-0.3,1-0.7,1.2l-12,6.9
	c-0.3,0.2-0.7,0.1-0.9-0.2c-0.1-0.1-0.1-0.2-0.1-0.4V17.5C17.1,17,17.4,16.5,17.9,16.3z"/>
<path id="_x33_" class="st1" d="M29.7,9.4l-12,6.9C17.3,16.5,17,17,17,17.5v13.8c0,0.7,0.5,0.8,1.1,0.6l2.3-1.3
	c1.7-1,3.4-4.3,3.4-4.4c0,0.3,0.1,0.6,0.1,0.9c0,0.2,0.1,0.3,0.3,0.3c0.1,0,0.2-0.1,0.3-0.1c1.3-2,0.3-4.8,0.2-5
	c0.1-0.9,0.2-1.9,0.5-2.8c0.5-1.9,1.8-3.5,3.5-4.5c1-0.6,1.8-1.6,2.2-2.7V10c0-0.4-0.3-0.7-0.7-0.7C30,9.3,29.8,9.3,29.7,9.4z
	 M21.6,17.3c0.1-0.7,0.5-1.4,1.1-1.8c0.6-0.4,1.1-0.1,1.1,0.5c-0.1,0.7-0.5,1.4-1.1,1.8C22.1,18.1,21.5,17.9,21.6,17.3z"/>
<path id="_x34_" class="st1" d="M15.1,16.3L3.2,9.4c0.5-0.9,0.3-2-0.4-2.8c-1.3,0.3-1,1.9-1,1.9C0.7,8.2,0.1,8.7,0,8.8
	c0.3,0.9,1.2,1.4,2.1,1.4v13.6c0,0.5,0.3,1,0.7,1.2l12,6.9c0.3,0.2,1,0.1,1-0.6s0-13.8,0-13.8C15.8,17,15.6,16.5,15.1,16.3z"/>
</svg>
