<?xml version="1.0" encoding="utf-8"?>
<!-- Generator: Adobe Illustrator 22.1.0, SVG Export Plug-In . SVG Version: 6.00 Build 0)  -->
<svg version="1.1" id="图层_1" xmlns="http://www.w3.org/2000/svg" xmlns:xlink="http://www.w3.org/1999/xlink" x="0px" y="0px"
	 viewBox="0 0 28 16" style="enable-background:new 0 0 28 16;" xml:space="preserve">
<style type="text/css">
	.st0{fill:#3a84ff;}
</style>
<path class="st0" d="M26,0H2C0.9,0,0,0.9,0,2v12c0,1.1,0.9,2,2,2h24c1.1,0,2-0.9,2-2V2C28,0.9,27.1,0,26,0z M13.8,11.8H5.2v-1.2h1.3
	V6.2h1.3v4.4h1.5V5.3H5.5V4.1h8v1.2h-2.9v1.9h2.6v1.2h-2.6v2.2h3.2V11.8z M18.9,11.1l-4.6,0.7l-0.1-1.3l1.8-0.2V8.3h-1.4V7.2h4v1.2
	h-1.3V10l1.7-0.3C18.9,10.4,18.9,10.8,18.9,11.1z M22.3,11.8c-0.2,0.3-0.6,0.4-1,0.4c-0.8,0-1.4-0.5-1.7-1.4
	c-0.3-0.9-0.6-2.5-0.7-4.6h-4.7V5.1h4.6l-0.1-1.5h1.3c0,0.5,0,1,0.1,1.5h1.2c-0.3-0.3-0.5-0.6-0.7-0.9l0.8-0.6
	c0.3,0.4,0.7,0.7,1,1.1l-0.5,0.4h0.9v1.2h-2.6c0.1,1.9,0.3,3.2,0.5,3.8c0.2,0.6,0.4,0.9,0.6,0.9c0.1,0,0.1,0,0.1-0.1
	c0-0.1,0.1-0.2,0.2-0.5c0.1-0.3,0.1-0.7,0.2-1.1c0.4,0.3,0.8,0.5,1.2,0.6C22.7,10.8,22.5,11.5,22.3,11.8z"/>
</svg>
