<svg viewBox="0 0 64 64" version="1.1" xmlns="http://www.w3.org/2000/svg"><path fill="#737987" d="M30,13.45h0c3-1.26,1.92-2.84.8-3.78a20.81,20.81,0,0,0-8.81-3.49h-.11A28,28,0,0,0,4,32v0c0,.41,0,.89,0,1.38s0,1,0,1.45v-.07A43.33,43.33,0,0,1,29.5,13.53l.31-.08ZM60,32a28,28,0,0,0-2.73-12l.07.17a16.11,16.11,0,0,0-9.91-4.48h-.06c-2.76.24,0,4.76,0,4.76h0A43.76,43.76,0,0,1,51.85,29l.1.3A43.35,43.35,0,0,1,55,45.53c0,.82,0,1.62-.06,2.42v-.11A27.67,27.67,0,0,0,60,32ZM35.26,8.48h0l1.61,1A22.49,22.49,0,0,0,44.48,12l.13,0,2.44.31a21.45,21.45,0,0,1,7.53,3.17l-.07,0A27.78,27.78,0,0,0,24.82,5l.19,0A28,28,0,0,1,35.29,8.48l-.13-.07Zm-1.78,8.75A44.15,44.15,0,0,0,5,38.59l-.12.22A28,28,0,0,0,52.6,50.94l0,0c0-.56,0-1.22,0-1.88a45.26,45.26,0,0,0-11-29.66l.05.05a9,9,0,0,0-6.29-2.55,9.33,9.33,0,0,0-2,.22h.06Z"/></svg>