<?xml version="1.0" encoding="utf-8"?>
<!-- Generator: Adobe Illustrator 22.1.0, SVG Export Plug-In . SVG Version: 6.00 Build 0)  -->
<svg version="1.1" id="图层_1" xmlns="http://www.w3.org/2000/svg" xmlns:xlink="http://www.w3.org/1999/xlink" x="0px" y="0px"
	 viewBox="0 0 28 16" style="enable-background:new 0 0 28 16;" xml:space="preserve">
<style type="text/css">
	.st0{fill:#ff9c01;}
</style>
<path class="st0" d="M26,0H2C0.9,0,0,0.9,0,2v12c0,1.1,0.9,2,2,2h24c1.1,0,2-0.9,2-2V2C28,0.9,27.1,0,26,0z M15.3,3.6
	c0.4,0.5,0.8,1.1,1.1,1.6l-1,0.6c-0.3-0.6-0.7-1.1-1-1.7L15.3,3.6z M11.2,4.3h0.9v5.9h-0.9V4.3z M6.1,3.6c0.4,0.3,0.9,0.7,1.3,1.1
	V3.9h3.4v5.5H9.9V4.9H8.3v4.6H7.4V4.7L6.6,5.6C6.2,5.2,5.8,4.8,5.3,4.4L6.1,3.6z M5.8,5.9C6.3,6.2,6.8,6.6,7.2,7L6.4,8
	C6.1,7.6,5.7,7.2,5.1,6.7L5.8,5.9z M5.3,11.8c0.3-1,0.6-2.1,0.9-3.4c0.4,0.2,0.8,0.3,1.1,0.4l-0.8,3.3C6,12,5.6,11.9,5.3,11.8z
	 M10.2,11.9c-0.4-0.5-0.8-1-1.2-1.5c-0.3,0.6-0.7,1.3-1.4,1.9c-0.3-0.4-0.5-0.7-0.7-0.9c0.7-0.5,1.1-1,1.4-1.5s0.4-1.3,0.4-2.1V5.5
	h0.8v2.3c0,1-0.1,1.8-0.3,2.4l0.6-0.5c0.5,0.5,1,1,1.4,1.5L10.2,11.9z M13.5,10.9c0,0.3-0.1,0.6-0.2,0.7S13,11.9,12.8,12
	s-0.7,0.1-1.3,0.1c0-0.4-0.1-0.8-0.3-1.2c0.3,0,0.6,0.1,0.9,0.1c0.3,0,0.4-0.2,0.4-0.5V3.6h1V10.9z M19.7,11.3
	c-0.4,0.1-1.4,0.2-3,0.5l-0.2-0.8c-0.5,0.4-1,0.8-1.3,1.1l-0.6-0.9c0.2-0.2,0.2-0.4,0.2-0.7V7.4h-0.7V6.3H16V10
	c0.2-0.2,0.5-0.4,0.8-0.6c0,0.2,0.1,0.5,0.1,1.1l0.5-0.1v-2h-0.9V7.3h2.9v1.1h-0.9v1.8l1.1-0.2C19.7,10.7,19.7,11.1,19.7,11.3z
	 M22.4,11.7c-0.2,0.3-0.5,0.5-0.8,0.5c-0.4,0-0.7-0.1-0.9-0.4s-0.4-0.7-0.6-1.5s-0.3-2.1-0.4-4h-3.2V5.2h3.2l0-1.7h1.2l0,1.7h0.9
	c-0.4-0.5-0.6-0.8-0.8-1l0.7-0.6c0.4,0.4,0.7,0.8,1,1.1L22,5.2h0.8v1.2H21c0,0.9,0.1,1.7,0.2,2.3s0.1,1.1,0.2,1.5s0.1,0.5,0.2,0.6
	s0.1,0.1,0.1,0.1c0.1,0,0.2-0.5,0.3-1.4c0.4,0.2,0.7,0.3,1,0.4C22.8,10.8,22.6,11.4,22.4,11.7z"/>
</svg>
