<?xml version="1.0" encoding="utf-8"?>
<!-- Generator: Adobe Illustrator 16.0.0, SVG Export Plug-In . SVG Version: 6.00 Build 0)  -->
<!DOCTYPE svg PUBLIC "-//W3C//DTD SVG 1.1//EN" "http://www.w3.org/Graphics/SVG/1.1/DTD/svg11.dtd">
<svg version="1.1" id="图层_2" xmlns="http://www.w3.org/2000/svg" xmlns:xlink="http://www.w3.org/1999/xlink" x="0px" y="0px"
	 width="16px" height="16px" viewBox="0 0 16 16" enable-background="new 0 0 16 16" xml:space="preserve">
<g>
	<path d="M15,0H1C0.448,0,0,0.448,0,1v14c0,0.553,0.448,1,1,1h14c0.553,0,1-0.447,1-1V1C16,0.448,15.553,0,15,0z M15,1v3H1V1H15z
		 M1,15V4.984h14V15H1z"/>
	<circle cx="2.5" cy="2.5" r="0.5"/>
	<circle cx="5" cy="2.5" r="0.5"/>
	<circle cx="7.5" cy="2.5" r="0.5"/>
	<path d="M7.483,9.781C7.478,9.75,7.47,9.721,7.458,9.69C7.445,9.659,7.429,9.632,7.41,9.604C7.4,9.588,7.396,9.568,7.383,9.554
		c-0.01-0.012-0.024-0.018-0.036-0.028c-0.01-0.011-0.015-0.023-0.026-0.033L4.228,6.898C4.016,6.721,3.702,6.75,3.523,6.96
		C3.346,7.171,3.374,7.487,3.585,7.665l2.637,2.21l-2.637,2.211c-0.211,0.177-0.239,0.492-0.062,0.704
		c0.099,0.118,0.241,0.179,0.384,0.179c0.113,0,0.227-0.038,0.321-0.117l3.094-2.594c0.013-0.011,0.018-0.025,0.029-0.036
		c0.01-0.011,0.023-0.015,0.033-0.025c0.013-0.015,0.017-0.034,0.027-0.05c0.019-0.028,0.035-0.056,0.047-0.087
		c0.012-0.03,0.02-0.06,0.026-0.091c0.006-0.031,0.01-0.062,0.01-0.094S7.49,9.812,7.483,9.781z"/>
	<path d="M12.5,11.5H9c-0.276,0-0.5,0.224-0.5,0.5s0.224,0.5,0.5,0.5h3.5c0.276,0,0.5-0.224,0.5-0.5S12.776,11.5,12.5,11.5z"/>
</g>
</svg>
