<?xml version="1.0" encoding="utf-8"?>
<!-- Generator: Adobe Illustrator 25.0.0, SVG Export Plug-In . SVG Version: 6.00 Build 0)  -->
<svg version="1.1" id="图层_1" xmlns="http://www.w3.org/2000/svg" xmlns:xlink="http://www.w3.org/1999/xlink" x="0px" y="0px"
	 viewBox="0 0 1000 1000" style="enable-background:new 0 0 1000 1000;" xml:space="preserve">
<style type="text/css">
	.st0{display:none;}
	.st1{display:inline;fill:#182132;}
	.st2{fill:url(#SVGID_1_);}
	.st3{fill:url(#SVGID_2_);}
</style>
<g id="图层_2_1_" class="st0">
	<rect class="st1" width="1000" height="1000"/>
</g>
<g id="图层_1_1_">
	
		<linearGradient id="SVGID_1_" gradientUnits="userSpaceOnUse" x1="140.9615" y1="397.3394" x2="869.8286" y2="397.3394" gradientTransform="matrix(-1 0 0 1 1000 14.7913)">
		<stop  offset="0" style="stop-color:#3FFFFC"/>
		<stop  offset="1" style="stop-color:#429DFF"/>
	</linearGradient>
	<path class="st2" d="M158.21,638.73l308.36,178.03c17.35,10.01,38.73,10.01,56.06,0L831,638.71
		c17.35-10.01,28.04-28.53,28.04-48.55V234.1c0-20.03-10.69-38.54-28.04-48.55L522.65,7.51c-17.35-10.01-38.73-10.01-56.06,0
		L158.21,185.55c-17.35,10.01-28.04,28.53-28.04,48.55v356.06C130.18,610.2,140.87,628.7,158.21,638.73z M282.37,321.96
		c0-20.03,10.69-38.54,28.04-48.55l156.18-90.16c17.35-10.01,38.73-10.01,56.06,0l156.18,90.16c17.35,10.01,28.04,28.53,28.04,48.55
		v180.33c0,20.03-10.69,38.54-28.04,48.55L522.65,641c-17.35,10.01-38.73,10.01-56.06,0l-156.18-90.16
		c-17.35-10.01-28.04-28.53-28.04-48.55L282.37,321.96L282.37,321.96z"/>
	
		<linearGradient id="SVGID_2_" gradientUnits="userSpaceOnUse" x1="140.9615" y1="573.078" x2="869.8286" y2="573.078" gradientTransform="matrix(-1 0 0 1 1000 14.7913)">
		<stop  offset="1.962513e-03" style="stop-color:#A85AFF"/>
		<stop  offset="1" style="stop-color:#00AAFF"/>
	</linearGradient>
	<path class="st3" d="M158.21,814.45l308.36,178.04c17.35,10.01,38.73,10.01,56.06,0L831,814.45
		c17.35-10.01,28.04-28.53,28.04-48.55V590.16c0,20.03-10.69,38.54-28.04,48.55L522.65,816.75c-1.09,0.62-2.19,1.21-3.3,1.76
		c-16.7,8.21-36.5,7.63-52.76-1.76l-156.18-90.16c-17.35-10.01-28.04-28.53-28.04-48.55V497.7c0-20.03,10.69-38.54,28.04-48.55
		l156.18-90.16c17.35-10.01,38.73-10.01,56.06,0l156.18,90.16c17.35,10.01,28.04,28.53,28.04,48.55V321.96
		c0-20.03-10.69-38.54-28.04-48.55l-156.18-90.16c-17.35-10.01-38.73-10.01-56.06,0L158.21,361.27
		c-17.35,10.01-28.04,28.53-28.04,48.55v356.06C130.18,785.94,140.87,804.44,158.21,814.45z"/>
</g>
</svg>
