<svg viewBox="0 0 64 64" version="1.1" xmlns="http://www.w3.org/2000/svg"><path fill="#C4C6CC"  d="M60,32c0,14.1-10.5,26-24.5,27.8c-14,1.8-27.1-7.2-30.6-20.9S8.7,11.1,21.8,6 c6.5-2.6,13.8-2.6,20.4,0C52.9,10.2,60,20.5,60,32 M21.2,26.1c-0.1,4.4,2.2,8.5,5.9,10.8c2.9,1.7,6.6,1.7,9.5,0.1 c3.9-2.3,6.2-6.4,6.1-10.9c0.5-4.1-1.5-8.1-5-10.4c-3.5-2.2-8-2.2-11.5,0S20.8,22,21.2,26.1 M32.1,58.1c7.9,0,15.3-3.5,20.3-9.6 c-0.6-4.6-5.1-8.6-11.5-10.6c-5.1,4.7-12.9,4.6-17.9-0.2c-6.2,1.8-10.8,5.4-11.9,9.7C16,54.2,23.8,58.1,32.1,58.1"/></svg>